<?xml version="1.0" encoding="utf-8"?>
<!-- Generator: Adobe Illustrator 19.2.1, SVG Export Plug-In . SVG Version: 6.00 Build 0)  -->
<svg version="1.1" id="layer" xmlns="http://www.w3.org/2000/svg" xmlns:xlink="http://www.w3.org/1999/xlink" x="0px" y="0px"
	 viewBox="0 0 652 652" style="enable-background:new 0 0 652 652;" xml:space="preserve">
<style type="text/css">
	.st0{fill:#03388F;}
	.st1{fill:#FF7D63;}
</style>
<path class="st0" d="M374.9,236c0,4.9-4,8.9-8.9,8.9c-4.9,0-8.9-4-8.9-8.9c0-4.9,4-8.9,8.9-8.9C370.9,227.1,374.9,231.1,374.9,236
	 M96.5,331.4c3.9-3.4,5.9-8.4,5.9-15.2c0-13.1-7.5-19.7-22.3-19.7H45.1v39.9h35.8C87.4,336.4,92.6,334.7,96.5,331.4 M45.1,279.9H79
	c4.8-0.1,8.9-1.7,12.1-4.7c3.2-3,4.8-7.3,4.8-12.9c0-5.6-1.5-9.8-4.5-12.7c-3-2.9-7.2-4.3-12.7-4.3H45.1V279.9z M98.1,285
	c6.5,2.2,11.9,5.9,16,11.1c4.2,5.1,6.3,11.9,6.3,20.1c0,13.1-3.8,22.5-11.4,28.1c-7.6,5.6-16.9,8.4-27.9,8.4H35.5
	c-2.4,0-4.4-0.8-6-2.5c-1.7-1.7-2.5-3.7-2.5-6V237.1c0-2.4,0.8-4.4,2.5-6c1.7-1.6,3.7-2.5,6-2.5h45.6c10.8,0,19,2.7,24.6,8
	c5.6,5.3,8.4,13,8.4,23.1c0,5.7-1.4,10.7-4.1,15.2C107.3,279.2,103.3,282.6,98.1,285 M204.8,323c2.4-5,3.6-10.6,3.6-16.9
	c0-6.1-1.2-11.7-3.6-16.7c-2.4-5-5.8-8.9-10.1-11.8c-4.3-2.9-9.3-4.3-14.8-4.3c-5.6,0-10.5,1.4-14.8,4.3c-4.3,2.8-7.7,6.7-10.1,11.7
	c-2.4,5-3.6,10.6-3.6,16.8c0,6.3,1.2,11.9,3.6,16.9c2.4,5,5.8,8.9,10.1,11.7c4.3,2.8,9.3,4.3,14.8,4.3c5.6,0,10.5-1.4,14.8-4.3
	C199,331.8,202.4,327.9,204.8,323 M216.1,258.6c2.5,0,4.5,0.8,6.1,2.4c1.6,1.6,2.4,3.7,2.4,6.3v77c0,2.4-0.8,4.4-2.4,6
	c-1.6,1.7-3.6,2.5-6.1,2.5c-2.5,0-4.5-0.8-6-2.4c-1.5-1.6-2.3-3.6-2.3-6.1v-4.6c-3.1,4.1-7.3,7.7-12.6,10.6
	c-5.3,2.9-11.1,4.3-17.2,4.3c-8,0-15.3-2.1-21.9-6.2c-6.6-4.1-11.7-9.9-15.4-17.3c-3.7-7.4-5.6-15.7-5.6-24.9
	c0-9.2,1.9-17.5,5.6-24.9c3.7-7.4,8.8-13.1,15.3-17.3c6.5-4.1,13.7-6.2,21.5-6.2c6.3,0,12.1,1.3,17.5,3.9c5.4,2.6,9.7,5.9,12.9,9.9
	v-4.3c0-2.5,0.8-4.6,2.3-6.2C211.6,259.4,213.6,258.6,216.1,258.6 M319.2,322.7c2.4-5,3.6-10.6,3.6-16.8c0-6.1-1.2-11.7-3.6-16.7
	c-2.4-5-5.8-8.9-10.2-11.7c-4.4-2.8-9.3-4.3-14.7-4.3c-5.6,0-10.5,1.4-14.9,4.3c-4.4,2.8-7.8,6.7-10.2,11.6
	c-2.4,4.9-3.6,10.5-3.6,16.8c0,6.3,1.2,11.9,3.6,16.8c2.4,5,5.8,8.9,10.2,11.8c4.4,2.9,9.3,4.3,14.9,4.3c5.4,0,10.3-1.4,14.7-4.3
	C313.4,331.7,316.8,327.7,319.2,322.7 M318,263.9c6.5,4.1,11.6,9.9,15.3,17.2c3.7,7.3,5.6,15.6,5.6,24.8c0,9.2-1.9,17.6-5.6,25
	c-3.7,7.4-8.8,13.2-15.3,17.4c-6.5,4.1-13.7,6.2-21.5,6.2c-6.2,0-11.9-1.4-17.2-4.1c-5.3-2.7-9.6-6.1-12.9-10.1v5.1
	c0,2.4-0.8,4.4-2.4,6c-1.6,1.6-3.6,2.5-6.1,2.5c-2.4,0-4.3-0.8-5.9-2.4c-1.6-1.6-2.4-3.6-2.4-6.1v-118c0-2.5,0.8-4.5,2.3-6.1
	c1.5-1.6,3.5-2.4,6-2.4c2.5,0,4.5,0.8,6.1,2.5c1.6,1.7,2.4,3.7,2.4,6v45.8c2.8-4.3,7-7.9,12.4-11c5.4-3.1,11.2-4.6,17.4-4.6
	C304.3,257.7,311.5,259.8,318,263.9 M365.9,258.9c-2.4,0-4.3,0.8-5.9,2.5c-1.6,1.7-2.4,3.7-2.4,6v76.8c0,2.4,0.8,4.4,2.4,6
	c1.6,1.7,3.6,2.5,5.9,2.5c2.5,0,4.5-0.8,6.1-2.5c1.6-1.7,2.4-3.7,2.4-6v-76.8c0-2.4-0.8-4.4-2.4-6
	C370.5,259.8,368.4,258.9,365.9,258.9 M509,323.1c2.7-5,4-10.6,4-16.8c0-6.4-1.3-12.1-4-17.1c-2.7-5-6.3-8.9-10.8-11.7
	c-4.6-2.8-9.6-4.2-15.2-4.2c-5.6,0-10.6,1.4-15.2,4.2c-4.6,2.8-8.2,6.7-10.8,11.7c-2.7,5-4,10.7-4,17.1c0,6.3,1.3,11.9,4,16.8
	c2.7,5,6.3,8.8,10.8,11.6c4.6,2.8,9.6,4.2,15.2,4.2c5.6,0,10.6-1.4,15.2-4.2C502.7,332,506.3,328.1,509,323.1 M506.7,263.9
	c7.2,4.1,12.8,9.9,16.9,17.4c4.1,7.4,6.2,15.8,6.2,25c0,9.2-2.1,17.5-6.2,24.8c-4.1,7.3-9.8,13.1-16.9,17.2
	c-7.2,4.1-15,6.2-23.7,6.2c-8.6,0-16.5-2.1-23.7-6.2c-7.2-4.1-12.8-9.9-16.9-17.2c-4.1-7.3-6.2-15.6-6.2-24.8c0-9.2,2.1-17.6,6.2-25
	c4.1-7.5,9.8-13.2,16.9-17.4c7.2-4.1,15-6.2,23.7-6.2C491.6,257.7,499.5,259.8,506.7,263.9 M624.6,262.3c-1.6-1.7-3.6-2.5-6.1-2.5
	c-2.4,0-4.3,0.8-5.9,2.5c-1.6,1.7-2.4,3.7-2.4,6v47.2c0,7.7-1.9,13.5-5.7,17.4c-3.8,3.9-9.3,5.9-16.5,5.9
	c-14.5,0-21.8-7.7-21.8-23.2v-47.2c0-2.4-0.8-4.4-2.4-6c-1.6-1.7-3.6-2.5-6.1-2.5c-2.4,0-4.3,0.8-5.9,2.5c-1.6,1.7-2.4,3.7-2.4,6
	v47.2c0,12.3,3.4,21.8,10.1,28.6c6.7,6.8,16.3,10.2,28.6,10.2c12.4,0,22-3.4,28.8-10.2c6.8-6.8,10.2-16.3,10.2-28.6v-47.2
	C627,266,626.2,263.9,624.6,262.3 M431.5,364.3c-8,0-14.4-6.5-14.4-14.4c0-0.1,0-0.2,0-0.3c0-0.1,0-0.2,0-0.2V227.5
	c0-2.4-0.8-4.4-2.4-6c-1.6-1.6-3.6-2.5-5.9-2.5c-2.4,0-4.4,0.8-6,2.5c-1.7,1.7-2.5,3.7-2.5,6v121.8c0,0.2,0,0.3,0,0.4
	c0,0,0,0.1,0,0.1c0,17.2,14,31.3,31.3,31.3c4.6,0,8.4-3.8,8.4-8.4C439.9,368.1,436.1,364.3,431.5,364.3"/>
<path class="st1" d="M418.7,435.6c-29.8,0-55.9-10.9-77.5-32.4c-3-2.9-3.6-7.7-1.2-11.1c3.1-4.4,9.3-4.8,13-1.1
	c18.6,18.6,40.1,27.6,65.8,27.6c25.5,0,46.9-9,65.5-27.4c3.2-3.2,8.6-3.6,12-0.6c3.6,3.3,3.7,8.9,0.3,12.3
	C474.9,424.7,448.7,435.6,418.7,435.6 M499.6,296.5c0-5.2-4.2-9.4-9.4-9.4c-5.2,0-9.4,4.2-9.4,9.4c0,5.2,4.2,9.4,9.4,9.4
	C495.4,305.9,499.6,301.7,499.6,296.5"/>
</svg>
