<svg version="1.2" xmlns="http://www.w3.org/2000/svg" viewBox="0 0 1584 1052" width="1584" height="1052">
	<title>Carrefour_logo_no_tag-svg</title>
	<style>
		.s0 { fill: #ffffff } 
	</style>
	<g id="Layer">
		<path id="Layer" class="s0" d="m476.1 32.6c4.1 0 6.9 3.6 6.8 8.1-0.1 2.6-1.2 5.5-3.8 8.1-101.6 126.3-175.6 274-175.6 478.9 0 204.8 74 349.6 175.6 475.9 2.6 2.5 3.7 5.5 3.8 8.1 0.1 4.4-2.7 8.1-6.8 8.1-2.3 0-5-1.1-7.8-4l-432.9-418.8c-21.6-18.5-35.4-40.1-35.4-70.8 0-30.9 13.8-52.4 35.4-70.8l432.9-418.9c2.8-2.9 5.5-4 7.8-3.9z"/>
		<path id="Layer" class="s0" d="m989.9 109.7c0 10.7-4.1 20.9-13.1 29.9-48.2 46.5-67.1 93.1-67.2 134.2-0.3 78.5 67.7 136.9 130.4 136.9 86.3 0 137.1-67.9 137.1-155.6 0-83.1-35.4-152.5-74-207.9-1.5-2.3-2.2-4.8-2.2-7 0.1-4.4 2.6-8 6.5-8 2.3 0 5 1.3 8 4.3l433 418.9c21.6 18.3 35.5 39.9 35.5 70.8 0 30.7-13.9 52.3-35.5 70.8l-433 418.8c-3 3-5.7 4.2-8 4.2-3.9 0-6.4-3.5-6.5-7.9 0-2.2 0.7-4.7 2.2-7 38.6-55.5 74-124.8 74-207.9 0-87.8-50.8-155.6-137.1-155.6-62.7 0-130.7 58.4-130.4 136.9 0.1 41.1 19 87.6 67.2 134.2 9 9 13.1 19.3 13.1 30-0.3 48.9-87 108.5-188.7 108.5-169.5 0-235.8-237-235.8-523.5 0-286.4 66.3-526.7 235.8-526.7 101.7 0 188.4 59.6 188.7 108.7z"/>
	</g>
</svg>