<svg version="1.2" baseProfile="tiny-ps" xmlns="http://www.w3.org/2000/svg" viewBox="0 0 1548 897" width="1548" height="897">
	<title>hermes-logo-svg</title>
	<style>
		tspan { white-space:pre }
		.shp0 { fill: #ffffff } 
	</style>
	<path id="Layer" fill-rule="evenodd" class="shp0" d="M140.28 446.48L234.26 446.48L234.26 479.67L204.31 479.67L204.31 646.51L234.23 646.51L234.23 679.54L140.26 679.54L140.26 646.51L169.89 646.51L169.89 569.1L64.43 569.1L64.43 646.51L93.97 646.51L93.97 679.54L0.21 679.54L0.21 646.51L30.04 646.51L30.04 479.67L0.21 479.67L0.21 446.48L93.97 446.48L93.97 479.67L64.45 479.67L64.45 536.32L169.91 536.32L169.91 479.67L140.26 479.67M1271.17 601.89L1305.04 601.89L1305.04 679.54L1113.05 679.54L1113.05 646.51L1144.3 646.51L1144.3 479.67L1113.05 479.67L1113.05 446.48L1304.59 446.48L1304.59 511.56L1271.85 511.56L1271.85 479.67L1178.72 479.67L1178.72 535.87L1258.23 535.87L1258.23 568.77L1178.75 568.77L1178.75 646.51L1271.15 646.51L1271.17 601.89ZM470.09 679.54L278.15 679.54L278.15 646.51L309.41 646.51L309.41 479.67L278.17 479.67L278.17 446.48L469.71 446.48L469.71 511.56L436.97 511.56L436.97 479.67L343.82 479.67L343.82 535.87L423.33 535.87L423.33 568.77L343.82 568.77L343.82 646.51L436.23 646.51L436.23 601.89L470.09 601.89L470.09 679.54ZM1168.79 414.5L1237.64 414.5L1254.82 434.98L1187.65 434.98L1168.79 414.5ZM1491.85 546.25C1526.61 556.25 1547.83 575.09 1547.92 615.05C1547.92 670.89 1494.14 686.65 1463.41 686.65C1435.87 686.65 1414.38 678.31 1398.01 665.75L1397.69 665.3C1394.02 662.75 1392.85 659.99 1392.85 659.99L1394.02 664.07L1394.11 664.18L1394.11 679.61L1361.76 679.61L1361.76 597.13L1392.71 597.13L1393.07 596.98C1398.14 630.79 1415.46 654.43 1459.3 654.43C1503.09 654.43 1513.85 631.49 1513.85 614C1513.85 595.52 1500.44 583.05 1479.76 577.44C1459.04 571.84 1446.36 571.84 1421.51 565.24C1396.71 558.7 1367.46 544.57 1367.46 504.09C1367.46 462.56 1408.28 441.08 1442.93 441.08C1471.53 441.08 1490.55 450.85 1500.53 459.82C1500.53 459.89 1500.53 459.94 1500.57 460C1503.89 463.3 1504.79 465.16 1505.01 465.83L1504.03 461.21L1504.03 446.41L1535.49 446.41L1535.49 514.36L1502.97 514.36L1502.97 514.27L1502.84 514.36C1501.58 494.65 1479.42 472.27 1445.56 472.27C1411.73 472.27 1402.22 495.12 1402.22 503.93C1402.22 512.7 1406.49 525.93 1428.02 533.15C1451.86 541.12 1468.41 539.59 1491.85 546.27L1491.85 546.25ZM1003.87 646.51L1003.87 492L1003.51 482.81L1001.13 490.97L936.09 646.09L917.65 646.09L852.84 491.02L850.08 482.94L849.85 493.08L849.85 646.51L879.57 646.51L879.57 679.52L784.54 679.52L784.54 646.49L815.69 646.49L815.69 479.65L784.59 479.65L784.59 446.46L869.5 446.46L925.8 582.58L926.92 589.37L928.08 582.69L984.38 446.48L1069.38 446.48L1069.38 479.67L1038.21 479.67L1038.21 646.51L1069.38 646.51L1069.38 679.54L974.29 679.54L974.29 646.51L1003.87 646.51ZM347.63 348.35C348.36 349.02 349.1 349.69 349.85 350.34C350.6 350.99 351.35 351.64 352.11 352.27C352.88 352.91 353.65 353.54 354.43 354.15C355.2 354.77 355.99 355.38 356.78 355.97L324.71 355.97L324.71 348.35L347.63 348.35ZM1188.57 348.48L1188.55 348.48L1188.55 348.46L1188.57 348.48ZM1188.55 348.48L1188.55 355.97L1163.43 355.97C1163.81 353.31 1167.24 349.38 1171.88 348.48L1188.55 348.48ZM324.71 362.03L367.77 362.14C383.74 369.03 402.09 369.07 418.01 362.07L586.68 362.07C600.72 368.53 618.73 368.85 632.92 362.07L1188.44 362.07L1188.44 378.22L324.71 378.22L324.71 362.03ZM567.93 348.35C568.54 349.06 569.17 349.76 569.83 350.44C570.48 351.12 571.15 351.77 571.85 352.41C572.54 353.05 573.25 353.66 573.98 354.26C574.71 354.85 575.46 355.42 576.22 355.97L428.64 355.97C431.07 354.4 437.03 349.25 437.48 348.35L567.93 348.35ZM339.51 288.43C339.5 288.48 339.48 288.53 339.47 288.58C339.5 288.58 339.53 288.58 339.56 288.59L339.51 288.43ZM339.47 288.58C332.68 287.73 325.96 286.61 319.42 285.27C316.5 284.6 316.5 283.3 318.74 282.49C327.27 279.44 336.4 276.93 345.75 274.68C347.05 272.66 348.48 270.72 350.03 268.88C351.58 267.04 353.24 265.3 355.02 263.68C356.79 262.05 358.67 260.54 360.63 259.16C362.6 257.77 364.66 256.52 366.79 255.4C364.81 251.47 363.74 247.3 364.59 242.5C369.01 218.87 391.05 222.55 396.66 212.23C401.01 202.97 402.96 176.01 397.74 168.21C384.12 162.02 365.89 154.58 362.19 137.58C361.85 133.23 363.11 128.29 367.75 127.35C375.15 126.12 380.11 130.45 386.01 132.91C389.06 131.07 384.06 125.6 389.37 125.2C396.86 124.62 402.09 140.09 404.71 141.43C451.72 152.87 514.97 133.65 539.42 187.18C555.37 210.75 572.21 247.06 607.02 247.59C634.9 248.78 653.49 237.57 667.26 216.87C684.82 183.55 696.78 144.08 729.46 121.66C732.71 119.75 734.35 121.63 732.93 122.82C716.67 138.77 702.21 159.22 694.58 177.61C707.68 225.51 735.36 215.91 741.95 214.61C740.81 196.53 742.33 144.01 780.39 131.86C788.09 124.5 818.39 106.14 858.82 122.22C828.7 150.83 811.66 190.01 805.38 218.2L772.77 226.9C775.5 222.25 774.94 213.62 774.16 204.47C771.53 206 768.42 208.17 762.65 211.15C763.55 219.2 764.83 225.33 765.79 227.61C756.28 231.43 743.63 231.87 743.63 231.87L742.29 219.76C727.8 224.56 702.81 221.42 692.05 182.85C679.76 207.66 669.66 246.67 642.25 256.68C635.77 258.94 626.62 262.13 620.63 262.13L619 262.13C620.4 262.4 621.79 262.73 623.16 263.13C624.54 263.52 625.89 263.98 627.23 264.49C628.56 265 629.87 265.57 631.16 266.2C632.44 266.83 633.7 267.51 634.92 268.25C653.63 260.96 724.19 245.11 729.05 244.37L733.99 245.93C798.04 232.95 855.51 213.37 914.58 189.6C920.19 202.27 930.82 216.45 941.95 226.09C932.95 228.73 922.01 229.81 912.18 230.35C883.99 232.21 868.29 207.03 838.53 222.12C845.93 239.68 813.18 253.85 802.64 268.38C798.96 286.64 820.63 296.23 828.61 310.14C824.94 322.52 832.02 334.67 829.24 348.57L1027.85 348.53L1030.27 336.78C1029.28 333.37 1024.06 336.38 1023.45 332.38L1022.04 314.89C1021.41 309.94 1015.74 299.62 1014.01 297.29C1014.01 297.29 1011.11 297.29 1009.9 292.09C1008.78 286.88 996.63 254.5 992.86 244.77C974.89 241.05 959.69 235.62 945.44 225.08C936.47 215.17 927.77 203.01 925.3 184.71C925.3 184.71 991.6 155.07 996.76 143C1016.07 151.12 1025.81 144.69 1025.81 144.69C1026.5 143.68 1023.05 138.18 1022.73 137.29C1024.26 137.89 1026.14 139.15 1028.03 139.15C1028.16 139.37 1028.38 139.55 1028.61 139.78C1031.97 112.13 1029.82 87.93 1026.81 71.22C1021.66 75.35 1016.34 79.27 1011.45 82.12C1017.96 95.15 1025.04 108.09 1019.39 134.48C989.34 129.93 968.41 92.95 951.66 96.41C950.76 90.57 944.93 80.62 950.76 77.03C948.79 71.89 947.73 65.17 954.68 60.5C951.93 54.27 951.16 48.1 958.95 43.46C957.71 39.15 958.07 29.69 967.58 27.76C968.7 20.45 971.75 14.62 978.66 11.8C970.83 8.48 969.38 0.63 969.38 0.63C976.22 4.78 982.2 7.98 992.14 5.9C992.14 5.9 997.01 1.35 999.54 0.45C1002.12 -0.38 1015.98 0.9 1019.17 3.14C1022.26 5.38 1023.47 7.71 1026.43 13.23C1035.99 20.12 1051.78 20.34 1060.52 27.74C1059.27 30.83 1063.46 34.27 1059.72 36.55C1057.56 37.18 1051.96 34.85 1050.75 37.32L1050.07 39.56L1050.21 39.56L1054.38 41.04C1053.46 44.36 1052.14 46.2 1046.19 44.63C1044.65 48.71 1054.07 52.7 1055.07 53.86C1054.2 55.93 1052.83 57.72 1046.48 53.91C1046.48 53.91 1038.99 61.13 1029.8 68.76C1032.87 85.57 1035.14 110.78 1030.58 141.86C1045.25 161.03 1067.52 175.16 1082.71 181.55L1101.82 178.01C1103 179.18 1103.3 181.73 1102.17 182.32L1039.26 194.47C1036.19 200.95 1040.79 204.27 1036.46 210.48L1031.86 219.56C1025.56 247.17 1039.42 282.44 1042.56 285.4C1042.34 289.93 1043.77 292.02 1043.55 292.92C1044.78 314.89 1044.67 334.83 1065.75 342.79C1067.84 346.94 1072.7 351.92 1070.46 356.13L771.94 356.13C769.56 351.92 767.36 350.97 767.36 348.51L821.41 348.51C821.82 347.07 818.23 343.26 815.09 340.34C810.18 335.77 809.93 330.28 818.07 328.32C820.27 326.78 821.53 324 820.27 322.14C812.51 315.95 815.96 303.59 806.36 297.69C797.06 289.64 785.95 284.08 778.55 275.42C781.33 259.32 800.85 257.78 806.99 243.24C812.87 238.31 823.7 234.59 823.7 225.91C806.07 232.41 795.87 252.82 779.16 259.32L759.06 286.55C751.06 306.95 744.55 333.86 761.82 351.8L760.7 356.11L643.58 356.11L652.06 348.48L728.43 348.48C731.52 343.19 723.78 335.72 731.23 331.08C731.52 327.36 727.19 326.13 724.72 324.89C730.29 305.11 736.45 285.63 738.63 264.26C739.91 261.79 741.1 258.38 744.17 258.07C744.84 280.65 736.77 301.39 731.83 322.7C741.43 330.75 726.9 341.24 738.65 347.74C742.04 346.17 745.76 350.84 747.92 346.17C746.05 341.24 746.39 332.59 738.65 332.27C739.89 306.89 750.09 283.72 751.32 257.1C757.4 254.82 765.99 244.5 765.99 244.5C749.58 248.54 717.57 250.94 709.56 269.17C708.22 271.41 708.08 274.19 708.08 277.02C708.13 283.23 707.07 288.68 700.23 290.47C696.02 291.5 688.91 292.89 685.77 289.35C681.91 284.86 678.25 281.66 672.87 279.71C665.92 282.4 659.37 284.86 653.13 287.11C656.92 294.1 659.28 302.02 659.27 310.54C659.27 323.66 654.06 336.23 644.78 345.51C635.51 354.78 622.93 359.99 609.81 359.99C596.7 359.99 584.12 354.78 574.84 345.51C565.57 336.23 560.36 323.66 560.35 310.54C560.35 307.96 560.7 305.43 561.11 302.96C555.07 302.22 549.02 301.17 542.78 299.53C537.63 298.19 538.43 296.73 542.78 294.1C546.33 291.95 555.77 288.23 568.02 284.33C575.8 271.95 588.92 263.38 604.17 261.63C596.79 261.45 588.31 261.41 581.41 261.68C561.83 262.35 560.41 265.49 559.25 263.7C554.9 256.56 551.46 246.25 545.25 240.37C505.51 247.66 466.17 241.27 430.64 229.16C426.6 227.91 425.71 226.85 422.16 225.51C418.46 226.81 414.99 226.22 412.97 224.61C412.07 223.62 403.73 223.22 400.25 223.4C389.91 224.27 377.33 227.88 371.65 237.12C371.13 238.31 370.74 239.56 370.49 240.85C370.25 242.13 370.16 243.43 370.22 244.74C370.28 246.04 370.49 247.33 370.84 248.59C371.2 249.84 371.69 251.05 372.33 252.19C372.37 252.24 372.46 252.37 372.55 252.42C378.79 249.95 385.56 248.49 392.74 248.49C397.2 248.49 401.66 249.03 405.99 250.1C410.33 251.17 414.53 252.75 418.49 254.82C422.45 256.89 426.14 259.43 429.49 262.38C432.84 265.34 435.83 268.68 438.38 272.35C447.35 274.01 456.14 275.96 464.4 278.5C466.68 279.19 466.8 280.51 463.88 281.3C457.69 283.03 451.41 284.37 445 285.49C447.1 291.37 448.45 297.62 448.45 304.22C448.03 318.72 441.98 332.5 431.57 342.61C421.16 352.72 407.22 358.38 392.7 358.37C378.19 358.37 364.25 352.71 353.84 342.59C343.44 332.48 337.39 318.7 336.98 304.2C337 302.86 337.07 301.53 337.18 300.2C337.3 298.87 337.47 297.54 337.68 296.22C337.89 294.9 338.15 293.59 338.46 292.29C338.75 291.04 339.09 289.8 339.47 288.58ZM1035.99 156.08C1030.25 168.32 1044.02 174.13 1039.98 189.27L1075.71 182.65C1063.37 178.28 1044.08 164.89 1036.01 156.08L1035.99 156.08ZM1039.89 33.57C1038.57 34.15 1039.51 35.54 1040.18 36.89C1040.68 38.12 1044.31 39.4 1046.64 38.91C1047.11 37.11 1047.47 35.1 1046.53 34.87C1044.98 34.47 1041.21 33.01 1039.87 33.57L1039.89 33.57ZM1024.68 46.06C1025.13 48.62 1027.06 55.05 1028.95 64.4C1036.57 57.95 1043.19 51.82 1043.23 50.61C1041.68 48.37 1040.61 45.39 1040.16 42.76C1035.9 41.58 1027.71 43.91 1024.68 46.06ZM1005.96 9.96C1005.78 10.25 1005.61 10.55 1005.45 10.85C1005.29 11.15 1005.13 11.45 1004.97 11.75C1004.82 12.06 1004.67 12.37 1004.53 12.68C1004.39 12.98 1004.25 13.3 1004.12 13.61L1004.27 13.68C1004.23 14.44 1007.46 16.91 1007.46 16.91C1007.46 16.91 1010.87 15.29 1010.87 14.53C1010.91 13.77 1011.52 11.5 1010.78 10.94C1010.04 10.41 1007.3 9.51 1005.96 9.96ZM1010.15 79.09C1014.19 76.31 1020.24 71.58 1026.07 66.71C1023.67 54.74 1021.25 47.43 1021.25 47.43C1013.42 50.97 1007.5 48.3 1003.42 48.37C1002.52 61.56 1005.93 70.57 1010.15 79.09ZM956.64 227.34C973.35 236.36 987.77 243.2 1006.32 237.93C1006.32 234.23 1003.33 231.63 1001.16 228.85C985.99 230.69 975.79 232.84 955.54 223.51C951.84 226.29 943.87 220.91 956.66 227.32L956.64 227.34ZM1029.62 327.11C1038.32 332.07 1033.97 341.76 1040.11 348.26L1031.19 348.33L1051.46 348.33C1052.34 339.94 1042.78 345.48 1041.21 338.68C1042.31 330.03 1040.61 327.11 1034.1 308.95C1032.8 305.83 1030.47 305.43 1030.47 305.43C1027.82 299.64 1025.22 288.65 1021.77 280.4C1019.17 272.19 1015.74 264.08 1012.89 254.25C1009.9 242.08 1006.43 239.77 1001.94 244.21C1009.34 268.7 1019.75 295.88 1023.34 305.65C1027.87 310.34 1028.43 317.29 1029.62 327.11ZM634.16 343.37C634.15 343.38 634.14 343.39 634.13 343.39C634.12 343.4 634.12 343.41 634.11 343.42L634.16 343.37ZM634.13 343.39C634.55 342.75 634.02 341.21 633.44 340.5L616.84 321.26C616.62 321.04 615.92 321.1 615.65 321.26C614.96 321.66 613.23 322.34 612.6 322.56C612.33 322.67 611.89 322.96 611.93 323.23L613.1 348.51C613.14 349.4 613.77 350.86 614.49 351.09C621.81 350.24 628.53 347.57 634.13 343.39ZM608.48 351.4C609.22 351.18 609.93 349.61 609.89 348.71L608.66 323.37C608.66 323.08 608.07 322.63 607.76 322.63C606.97 322.52 605.61 322.14 605.02 321.96C604.71 321.87 604.17 321.87 604.04 322.09L590.18 343.21C589.66 343.95 589.5 345.61 589.95 346.24C595.49 349.31 601.77 351.22 608.5 351.44L608.48 351.4ZM573.51 298.75L576.88 299.64C583.31 299.55 590.11 299.1 597.38 298.21L597.89 298.14L586.68 284.01C583.2 284.91 579.72 285.83 576.36 286.79C574.23 289.78 572.59 293.07 571.31 296.57C571.27 297.33 572.61 298.54 573.51 298.81L573.51 298.75ZM605 269.91C598.27 270.67 591.99 272.91 586.61 276.57C586.27 277.02 586.47 277.98 586.88 278.81C593.2 277.2 599.8 275.74 606.53 274.44L606.41 272.46C606.41 271.59 605.74 270.15 605.07 269.88L605 269.91ZM607.54 296.23L606.77 279.53C601.21 280.63 595.65 281.86 590.13 283.21L601.52 297.47C603.43 297.13 605.29 296.77 607.54 296.23ZM600.47 301.93C596.77 302.56 593.2 302.87 589.7 303.23L597.89 305.47C598.23 305.52 598.77 305.09 598.9 304.8C599.01 304.59 599.12 304.39 599.23 304.18C599.35 303.98 599.47 303.78 599.59 303.58C599.71 303.38 599.84 303.18 599.96 302.98C600.09 302.79 600.22 302.59 600.36 302.4C600.45 302.27 600.4 302.11 600.45 301.95L600.47 301.93ZM615.56 298.88L615.63 298.75L614.44 299.01L614.56 299.01C614.87 299.13 615.41 299.13 615.54 298.9L615.56 298.88ZM610.76 295.4C613.5 294.73 616.28 294.06 619.29 293.16L629.45 277.73C629.53 277.58 629.6 277.42 629.66 277.26C629.72 277.1 629.78 276.94 629.83 276.77C629.88 276.61 629.92 276.44 629.95 276.27C629.99 276.1 630.01 275.93 630.03 275.76C623.59 276.52 616.84 277.6 609.98 278.9L610.76 295.43L610.76 295.4ZM632.14 279.51L624.06 291.84C630.3 289.96 636.58 288.03 642.64 286.01C640.39 283.03 637.7 280.38 634.79 278.09C634.02 277.94 632.59 278.77 632.14 279.51ZM609.71 273.81C614.24 273 618.68 272.33 623.17 271.75C619.36 270.45 615.32 269.62 611.06 269.5C610.34 269.66 609.62 271.32 609.67 272.26L609.71 273.83L609.71 273.81ZM609.15 269.46C609.24 269.46 609.32 269.45 609.39 269.44L609.13 269.44L609.15 269.46ZM609.39 269.44L610.29 269.44L609.76 269.39C609.63 269.39 609.52 269.42 609.39 269.44ZM550.43 297.38C551.35 297.62 552.27 297.84 553.2 298.04C554.13 298.24 555.06 298.42 556 298.57C556.93 298.73 557.87 298.87 558.81 298.98C559.76 299.1 560.7 299.19 561.65 299.26C562.41 296.17 563.37 293.16 564.65 290.29C559.45 291.97 554.49 293.7 550.07 295.45C548.75 296.01 548.23 296.68 550.43 297.36L550.43 297.38ZM569.29 303.79C568.94 305.97 568.62 308.19 568.62 310.52C568.64 311.61 568.7 312.71 568.8 313.8C568.91 314.88 569.06 315.97 569.25 317.05C569.44 318.12 569.67 319.19 569.95 320.25C570.23 321.31 570.55 322.36 570.91 323.39C571.43 323.97 573.11 324 573.96 323.66L597.17 313.41C597.44 313.3 597.67 313.05 597.67 312.74C597.46 311.95 597.35 310.16 597.35 309.49C597.35 309.17 597.17 308.66 596.95 308.59L579.54 303.81C576.11 303.88 572.7 303.93 569.38 303.75L569.29 303.79ZM571.96 326.55L571.9 326.4C571.9 326.46 571.94 326.51 571.96 326.55ZM573.26 328.89C573.94 330.24 574.7 331.55 575.52 332.82C576.35 334.09 577.24 335.31 578.2 336.48C579.17 337.65 580.19 338.76 581.28 339.81C582.36 340.87 583.51 341.86 584.7 342.79C585.42 343.01 586.95 342.21 587.44 341.44L601.34 320.23C601.48 320 601.26 319.33 600.99 319.11C600.43 318.55 599.82 317.81 599.42 317.31C599.24 317.09 598.79 316.73 598.56 316.87L575.24 326.6C574.45 326.96 573.22 328.12 573.22 328.89L573.26 328.89ZM587.08 344.63L586.68 344.37C586.8 344.46 586.91 344.55 587.06 344.65L587.08 344.63ZM586.47 344.25L586.68 344.37C586.61 344.33 586.55 344.29 586.47 344.25ZM638.87 339.47C643.15 335.16 646.34 329.83 648.42 324C648.15 323.26 646.9 322.43 646.13 322.2L621.69 315.43C621.35 315.39 620.84 315.81 620.68 316.1C620.59 316.28 620.5 316.46 620.41 316.63C620.31 316.81 620.22 316.98 620.12 317.15C620.02 317.33 619.92 317.5 619.81 317.67C619.71 317.83 619.6 318 619.49 318.17C619.31 318.46 619.13 318.95 619.36 319.13L635.88 338.35C636.51 339.02 638.2 339.87 638.87 339.47ZM649.99 318.41C650.49 315.83 650.78 313.14 650.78 310.45C650.78 306.42 650.04 302.63 648.98 298.95C648.42 298.39 646.79 298.23 645.96 298.54L622.32 307.51C622.05 307.65 621.87 308.32 621.93 308.64C621.96 308.87 621.99 309.1 622.01 309.33C622.04 309.57 622.06 309.8 622.07 310.03C622.09 310.27 622.1 310.5 622.1 310.74C622.11 310.97 622.11 311.2 622.11 311.44C622.11 311.75 622.27 312.27 622.56 312.34L646.9 319.06C647.79 319.29 649.63 319.06 650.04 318.39L649.99 318.41ZM646.92 293.18C646.38 292.02 645.71 290.9 645.04 289.78C636.29 292.78 628.03 295.38 620.36 297.4L618.19 300.7C618.08 300.97 618.28 301.59 618.57 301.82C618.73 301.99 618.89 302.17 619.04 302.34C619.2 302.52 619.35 302.7 619.5 302.88C619.65 303.06 619.79 303.25 619.94 303.43C620.08 303.62 620.23 303.8 620.36 303.99C620.54 304.22 620.95 304.55 621.22 304.44L646.4 294.98L644.83 295.52C645.66 295.18 646.9 293.95 646.9 293.16L646.92 293.18ZM665.15 269.39C672.29 271.28 677.02 274.93 681.66 279.26C683.81 278.27 697.59 275.76 700.05 276.12C706.83 274.26 701.67 264.95 712.61 257.06C700.23 258.31 678.72 263.83 665.15 269.39ZM643.65 274.53C644.34 275.17 645.02 275.84 645.67 276.53C646.33 277.21 646.96 277.92 647.58 278.64C648.19 279.36 648.78 280.1 649.36 280.86C649.93 281.62 650.48 282.39 651 283.18C659.46 280.22 665.74 277.8 668.09 276.68C662.87 274.53 654.23 273.97 643.65 274.53ZM786.25 138.14C786.24 138.14 786.24 138.15 786.23 138.15C786.25 138.15 786.26 138.14 786.27 138.14L786.25 138.14ZM786.23 138.15C762.96 146.25 760.39 182.01 762.18 206C765.23 204.29 769.94 201.96 773.75 199.18C771.82 179.63 769.69 154.79 786.23 138.15ZM372.01 146.57C411.6 187.7 477.2 143.79 520.78 173.48C521.1 171.62 520.04 170.34 518.58 168.99C488.89 142.08 441.56 155.83 404.11 146.5C399.06 145.11 380.51 135.13 378.16 133.9C375.38 132.64 370.62 130.4 368.29 133.27C365.13 137.15 369.21 142.85 371.99 146.57L372.01 146.57ZM407.23 194.49C407.9 203.46 400.72 210.59 399.82 218.04C404.49 219.27 411.51 219.61 414.04 219.16C417.23 217.46 421.29 218.33 422.9 220.95C425.95 222.3 427.39 223.38 431.02 224.09C431.48 224.2 431.94 224.28 432.41 224.35C432.87 224.42 433.34 224.47 433.81 224.51C434.28 224.54 434.75 224.56 435.22 224.55C435.69 224.55 436.16 224.53 436.63 224.5C431.07 216.47 420.55 213.37 414.99 204.09C411.58 201.31 410.34 196.38 407.25 194.51L407.23 194.49ZM363.65 274.62C361 274.95 358.33 275.29 355.8 275.74C353.76 278.38 351.98 281.21 350.53 284.26C350.37 284.71 350.68 285.47 351.27 286.28C358.82 286.79 366.79 287.17 375.04 287.24L363.65 274.57L363.65 274.62ZM431.18 277.71C430.62 277.02 428.08 276.63 425.84 278.43L416.94 286.05C423.22 285.56 429.18 284.93 434.79 284.1C433.71 281.88 432.59 279.73 431.2 277.71L431.18 277.71ZM423.4 275.74C424.02 275.11 424.25 274.33 424.52 273.54C418.71 272.96 412.47 272.51 406.06 272.28L400.9 286.95C404.2 286.82 407.47 286.73 410.7 286.5L423.35 275.74L423.4 275.74ZM420.26 341.76C420.86 341.02 420.93 338.6 419.14 336.49L400.86 316.39C400.63 316.15 400.25 315.99 399.96 316.21C399.75 316.35 399.53 316.47 399.32 316.59C399.1 316.71 398.88 316.82 398.65 316.93C398.43 317.03 398.2 317.13 397.97 317.22C397.74 317.31 397.5 317.39 397.27 317.47C396.93 317.61 396.8 318.03 396.89 318.37L401.82 345.12C402.36 347.36 404.24 348.89 405.23 349.02C410.7 347.48 415.77 345.05 420.26 341.78L420.26 341.76ZM378.09 290.65C371.79 290.65 365.46 290.49 359.18 290.13L379.55 297.4C379.91 297.53 380.29 297.49 380.45 297.18C380.89 296.35 381.1 296.12 381.66 295.45C381.86 295.18 381.77 294.69 381.54 294.46L378.09 290.65ZM401.75 293.45C402.02 293.68 402.38 293.59 402.61 293.36L406.87 289.78L399.78 290.13L399.4 291.17C399.26 291.55 399.35 291.82 399.71 292C399.89 292.1 400.07 292.2 400.25 292.32C400.42 292.43 400.6 292.54 400.76 292.67C400.93 292.79 401.1 292.91 401.26 293.05C401.42 293.18 401.58 293.31 401.73 293.45L401.75 293.45ZM396.91 287.06C396.9 287.06 396.9 287.06 396.89 287.06L396.89 287.08L396.91 287.06ZM396.89 287.06L402.27 272.22C398.64 272.13 395.02 271.99 391.32 271.99C390.45 272.06 389.66 272.17 388.77 272.22L391.57 287.24L391.66 287.24C393.4 287.22 395.1 287.11 396.89 287.06ZM367.91 274.01L380.02 287.24C382.64 287.29 385.22 287.29 387.8 287.24L385.07 272.44C379.17 272.82 373.47 273.34 367.91 274.01ZM388.12 290.58C386.48 290.65 384.77 290.61 383.11 290.65L384.37 292.04C384.6 292.29 384.95 292.44 385.27 292.22C385.48 292.09 385.7 291.96 385.91 291.84C386.13 291.72 386.35 291.61 386.58 291.5C386.8 291.39 387.03 291.29 387.26 291.19C387.49 291.09 387.72 291 387.96 290.92C388.09 290.87 388.03 290.7 388.09 290.61L388.12 290.58ZM349.52 286.14C349.55 286.09 349.57 286.04 349.6 285.99C349.63 285.94 349.65 285.89 349.68 285.84C349.7 285.78 349.72 285.73 349.75 285.68C349.75 285.67 349.75 285.67 349.75 285.67C349.67 285.83 349.57 285.98 349.52 286.12L349.52 286.14ZM349.81 285.52C349.79 285.57 349.77 285.62 349.75 285.67C349.77 285.62 349.79 285.57 349.81 285.52ZM347.43 292.87C346.49 296.5 345.91 300.25 345.91 304.13C345.91 305.47 346.18 306.73 346.29 308.07C346.67 308.97 348.51 310.25 351.15 309.87L377.93 304.89C378.25 304.78 378.54 304.58 378.54 304.22C378.54 304.01 378.55 303.8 378.56 303.59C378.56 303.38 378.58 303.17 378.6 302.96C378.62 302.75 378.64 302.54 378.67 302.33C378.69 302.12 378.73 301.91 378.76 301.71C378.83 301.37 378.56 301.01 378.27 300.92L352.63 291.77C350.35 291.03 347.95 292.06 347.43 292.89L347.43 292.87ZM347.88 316.98C348.19 318.09 348.54 319.18 348.93 320.27C349.32 321.35 349.75 322.42 350.21 323.48C350.68 324.53 351.18 325.57 351.72 326.59C352.26 327.6 352.83 328.6 353.44 329.58C354 330.25 356.42 330.63 358.71 328.91L379.95 311.82C380.24 311.55 380.33 311.24 380.18 310.92C379.68 310.12 379.59 309.76 379.32 308.99C379.3 308.91 379.25 308.84 379.2 308.78C379.15 308.71 379.08 308.66 379.01 308.62C378.93 308.58 378.85 308.55 378.77 308.54C378.68 308.52 378.6 308.53 378.52 308.55L351.83 313.43C349.52 313.95 347.97 315.97 347.88 316.98ZM354.27 330.79C354.05 330.5 353.82 330.23 353.64 329.89C353.78 330.16 354.05 330.5 354.25 330.79L354.27 330.79ZM359.3 336.87C360.26 337.84 361.27 338.76 362.31 339.64C363.35 340.53 364.44 341.36 365.55 342.15C366.67 342.94 367.82 343.68 369 344.37C370.18 345.06 371.38 345.7 372.62 346.29C373.54 346.47 375.6 345.46 376.59 342.88L385.78 317.27C385.96 316.87 385.85 316.6 385.51 316.42C384.71 315.97 383.74 315.25 383.14 314.69C382.85 314.42 382.46 314.49 382.24 314.8L361.02 331.73C359.14 333.3 358.78 336.13 359.27 336.89L359.3 336.87ZM374.82 347.39C374.78 347.37 374.75 347.36 374.71 347.35L374.79 347.39L374.82 347.39ZM374.71 347.35L373.99 347.03C374.05 347.06 374.12 347.1 374.19 347.13C374.26 347.16 374.32 347.19 374.39 347.22C374.46 347.25 374.53 347.28 374.6 347.31C374.64 347.32 374.68 347.34 374.71 347.35ZM381.28 349.4C384.93 350.37 388.7 350.97 392.67 350.97C393.97 350.97 395.23 350.68 396.48 350.59C397.38 350.05 398.57 348.37 398.16 345.79L393.16 319C393.1 318.64 392.87 318.32 392.49 318.32C391.53 318.32 390.79 318.26 389.96 318.1C389.62 318.03 389.31 318.26 389.22 318.59L379.93 344.29C379.21 346.58 380.38 348.89 381.23 349.4L381.28 349.4ZM425.42 337.52C425.64 337.29 425.86 337.07 426 336.85C425.77 337.07 425.62 337.29 425.42 337.52ZM427.16 335.61C427.93 334.77 428.67 333.89 429.38 332.99C430.09 332.09 430.77 331.17 431.41 330.22C432.05 329.27 432.66 328.31 433.24 327.32C433.81 326.33 434.35 325.32 434.86 324.29C435.08 323.44 434.41 321.31 431.72 320.25L405.7 311.01C405.39 310.83 405.01 310.9 404.85 311.24C404.77 311.39 404.69 311.55 404.6 311.7C404.51 311.85 404.42 312 404.32 312.15C404.22 312.29 404.12 312.44 404.01 312.58C403.91 312.72 403.8 312.85 403.68 312.99C403.44 313.28 403.52 313.73 403.75 313.95L421.89 334.22C423.58 335.95 426.22 336.13 427.05 335.61L427.16 335.61ZM434.9 323.91C435.28 323.23 435.71 322.16 436.14 321.08C436.04 321.32 435.94 321.55 435.85 321.79C435.75 322.03 435.65 322.26 435.54 322.49C435.44 322.73 435.34 322.96 435.23 323.19C435.12 323.42 435.01 323.65 434.9 323.88L434.9 323.91ZM437.93 315.43C438.85 311.8 439.43 308.05 439.43 304.17C439.43 303.28 439.25 302.38 439.21 301.48C438.94 300.56 437.24 299.28 434.54 299.62L407.25 303.88C406.93 303.99 406.62 304.2 406.62 304.55C406.62 305.47 406.53 305.88 406.4 306.73C406.35 307.07 406.62 307.42 406.91 307.51L432.79 316.8C435.19 317.56 437.53 316.3 437.89 315.45L437.93 315.43ZM437.73 292.56C437.21 290.54 436.67 288.63 435.93 286.73C428.35 287.85 420.71 288.72 412.99 289.3L404.92 296.21C404.67 296.5 404.58 296.82 404.8 297.11C404.92 297.32 405.03 297.54 405.13 297.76C405.24 297.98 405.34 298.2 405.43 298.43C405.53 298.65 405.61 298.88 405.7 299.11C405.78 299.34 405.85 299.57 405.92 299.8C405.96 299.88 406 299.95 406.06 300.01C406.11 300.07 406.18 300.13 406.25 300.17C406.32 300.21 406.4 300.23 406.48 300.25C406.57 300.26 406.65 300.26 406.73 300.25L433.87 295.99C436.2 295.54 437.77 293.61 437.77 292.53L437.73 292.56ZM451.72 278.47C448.45 277.46 444.59 276.59 440.38 275.78C441.68 277.96 443.02 280.13 444.03 282.51C446.72 281.95 449.55 281.46 451.88 280.83C454.1 280.22 453.5 279.06 451.75 278.5L451.72 278.47ZM407.38 268.58C408.82 268.66 410.25 268.75 411.68 268.86C413.11 268.96 414.55 269.08 415.98 269.21C417.41 269.34 418.84 269.48 420.26 269.64C421.69 269.8 423.12 269.97 424.54 270.15C421.02 266.88 417 264.17 412.65 262.08C411.67 261.92 409.51 262.8 408.53 265.36L407.41 268.56L407.38 268.58ZM403.86 258.9C400.23 258 396.5 257.39 392.6 257.39C391.28 257.39 390.02 257.69 388.68 257.8C387.76 258.22 386.52 259.93 386.93 262.57L387.98 268.32C389.08 268.32 390.09 268.09 391.17 268.09C395.32 268.05 399.42 268.27 403.57 268.45L405.09 264.19C405.79 261.95 404.69 259.52 403.86 258.92L403.86 258.9ZM379.89 259.39L377.69 260.06C378.16 260.68 378.65 261.29 379.16 261.89C379.66 262.49 380.18 263.07 380.7 263.65C381.23 264.23 381.77 264.79 382.32 265.35C382.87 265.9 383.44 266.44 384.01 266.97L383.34 263.31C382.82 261.03 380.87 259.48 379.86 259.37L379.89 259.39ZM378.29 269.08C375.87 266.92 373.67 264.73 371.74 262.53C369.32 263.74 367.01 265.13 364.88 266.7C364.39 267.28 364.43 268.9 365.33 270.65C369.61 269.97 373.94 269.48 378.29 269.08ZM331.17 281.68C329.44 282.31 328.88 283.61 331.17 284.01C333.86 284.53 337.16 284.89 340.37 285.27C340.6 284.66 340.84 284.05 341.09 283.45C341.34 282.84 341.6 282.24 341.87 281.65C342.14 281.05 342.42 280.46 342.72 279.88C343.01 279.29 343.31 278.71 343.62 278.14C338.91 279.26 334.65 280.42 331.15 281.68L331.17 281.68ZM1120.75 348.46C1121.04 346.44 1124.63 347.41 1129.11 340.68C1128.8 320.32 1108.16 290.45 1111.84 280.13C1116.28 267.62 1121.62 257.64 1128.17 240.33C1128.66 234.79 1128.75 228.58 1128.08 221.56C1133.42 192.61 1138.91 193.48 1139.92 184.67C1139.92 181.75 1152.71 174.98 1152.21 171.21C1151.76 170.63 1151.32 170.16 1151.09 170.09C1149.75 169.6 1145.93 167.09 1147.05 163.68C1148.11 160.47 1147.57 158.39 1146.09 157.04C1145.44 156.44 1145.66 155.34 1146.16 154.31C1147.1 152.22 1147.62 151.55 1148.18 149.82C1143.65 146.3 1142.79 139.8 1145.26 137.78C1147.79 135.09 1156.18 138.29 1156.41 138C1163.58 132.44 1166.19 128.09 1170.09 125.94C1176.7 125.94 1187.99 136.41 1188.44 143.43C1187.13 146.1 1182.83 149.96 1175.79 158.34C1178.1 164.11 1178.32 168.7 1173.68 171.89C1173.25 171.78 1171.75 172.4 1169.77 170.88C1170.65 178.5 1180.16 183.89 1182.92 190.79C1183.46 204.11 1197.74 221.36 1181.53 232.05C1178.41 233.92 1175 236.47 1173.12 239.75C1176.21 253.78 1181.1 268 1182.94 281.68L1167.55 283.07C1165.45 288.3 1160.2 296.75 1162.35 302.27C1162.4 302.2 1162.64 302.2 1163.36 302.65C1165.29 305.63 1166.72 333.44 1165.65 336.02C1165.11 339.74 1168.47 339.54 1166.32 345.7C1164.37 346.17 1158.31 350.21 1157.48 353.49C1152.82 357.45 1141.54 358.17 1141.38 356.51C1141.11 351.76 1149.7 347.16 1150.76 342.12C1152.5 321.71 1150.6 301.21 1140.28 285.16C1135.86 283.41 1132.5 289.98 1129.81 292.83C1133.93 305.68 1141.76 319.67 1140.95 333.71C1140.77 338.42 1145.57 343.57 1143.2 349.4L1129.74 355.95L1081.59 355.95C1079.57 353.64 1076.09 351.47 1076.65 348.48L1120.75 348.48L1120.75 348.46ZM1154.25 317.52C1162.31 318.19 1161.79 316.84 1159.7 307.2C1158 307.47 1154.64 306.19 1152.84 307.92C1152.3 310.81 1153.18 314.71 1154.23 317.47L1154.25 317.52ZM1154.39 174.89C1153.49 178.84 1145.04 178.82 1145.64 188.41C1151.63 178.73 1165.65 180.21 1166.28 168.41C1163.9 162.2 1169.24 166.21 1169.91 159.4C1167.6 157.76 1162.89 152.56 1161.99 150.14C1161.7 149.24 1164.21 144.26 1152.95 143.81C1152.21 145.02 1150.8 149.96 1149.23 152.33C1148.36 153.61 1147.3 155.43 1147.53 155.92C1148.11 157.11 1149.63 157.83 1149.23 161.53C1148.96 164.51 1149.01 166.62 1151.2 167.74C1157.95 171.3 1162.64 168.17 1155.85 172.52C1155.51 173.03 1154.97 174.47 1154.39 174.91L1154.39 174.89ZM1141.58 225.66C1138.91 227.91 1135.17 233.06 1133.82 236.65C1133.78 237.14 1136.29 237.66 1136.85 237.21C1139.29 235.19 1140.86 239.63 1145.06 239.01C1146.85 237.1 1151.83 236.54 1150.22 232.5C1147.88 231.92 1144.65 228.44 1141.6 225.69L1141.58 225.66ZM1115.05 285.76C1115.74 289.37 1117.54 293.5 1119.87 298.48C1124.56 298.48 1128.48 294.64 1124.22 291.82C1135.39 286.57 1121.75 288.09 1126.02 285.58C1132.83 281.64 1136.06 269.66 1136.74 261.36C1136.69 260.35 1137.9 259.19 1138.87 259.23C1144.59 273 1144.23 290.38 1153.11 303.05C1154.01 302.85 1157.19 302.94 1158.04 302.04C1155.49 298.54 1155.58 295.02 1155.13 290.7C1155.13 287.42 1156.88 282.78 1159.03 293.92C1161.79 294.93 1165.65 274.82 1166.16 267.64C1150.46 271.14 1166.16 252.03 1154.28 251.59L1160.56 241.81C1160.29 238.22 1157.64 235.93 1153.56 236.88C1149.79 239.41 1149.93 244.75 1150.06 249.5C1144 260.26 1146.79 243.33 1140.28 243.18C1136.06 245.8 1134.49 239.01 1131.53 240.04C1124.31 264.93 1113.46 277.62 1115.03 285.78L1115.05 285.76ZM1126.8 313.28C1129.04 313.12 1131.06 311.77 1132.52 310.99C1132.23 307.31 1130.21 303.14 1128.19 300.9L1121.69 303.59C1122.7 305.94 1125.19 311.39 1126.8 313.28ZM917.41 179.65C910.9 175.97 909.56 165.05 906.91 153.05C905.41 142.58 907.25 138.9 908.77 127.78L918.8 125.36C919.9 130.74 915.82 135.22 915.75 141.05C921.92 155.18 916.47 166.39 917.43 179.62L917.41 179.65ZM813.86 216.6C818.12 189.78 844.09 138.43 866.34 124.08C885.11 129.06 901.26 128.83 901.26 128.83C900.14 146.91 897.22 155.07 910.46 183.32C878.67 196.67 852.21 205.86 813.86 216.63L813.86 216.6ZM991.56 139.15C991.55 139.14 991.55 139.14 991.54 139.14C991.55 139.13 991.55 139.13 991.56 139.12L991.56 139.15ZM991.54 139.14C973.06 155.43 949.52 166.37 925.53 177.85C924.88 160.52 923.24 134.35 927.5 121.34C931.07 118.79 940.94 110.87 941.07 105.33C941.07 105.33 937.57 99.39 941.2 91.7C939.12 89.09 930.21 82.57 937.39 74.88C931.56 69.92 934.23 61.78 938.63 57.25C935.91 53.04 932.59 45.21 941.38 39.98C937.1 31.39 944.14 27.87 947.78 22.94C942.26 21.68 937.5 13.39 937.5 13.39C947.78 19.22 961.95 12.56 972.72 13.68C970.56 16.17 965 16.77 961.59 18.34C935.26 52.47 943.58 84.83 945.29 103.9C962.89 102.15 975.4 128.01 991.54 139.14ZM715.69 598.93L716.58 646.76L746.52 646.76L746.52 679.77L682.47 679.77L680.85 600.38C680.41 587.89 671.86 573.36 649.77 573.09L585.69 573.09L585.69 646.74L614.69 646.74L614.69 679.81L521.99 679.81L521.99 646.76L551.37 646.76L551.37 479.58L521.99 479.58L521.99 446.39L652.53 446.39C669.1 446.39 685.7 448.68 699.69 458.82C714.65 469.69 723.47 486.22 723.47 506.69C723.47 534.39 708.08 550.83 695.39 556.48C695.35 556.48 695.32 556.48 695.28 556.49C695.25 556.49 695.22 556.5 695.18 556.51C695.15 556.51 695.12 556.52 695.08 556.53C695.05 556.54 695.02 556.55 694.98 556.57C691.1 558.18 686.98 558.4 683.93 558.23C684.82 558.3 685.7 558.42 686.58 558.6C687.45 558.77 688.31 559 689.16 559.28C690.01 559.55 690.84 559.88 691.66 560.25C692.47 560.62 693.26 561.04 694.02 561.5C706.56 569.08 715.69 585.23 715.69 598.9L715.69 598.93ZM656.7 541.07C675.63 541.07 691.24 527.84 691.24 510.8C691.24 496.04 683.5 487 675.25 482.81C668.5 479.38 659.84 479.6 652.89 479.6L585.71 479.6L585.71 541.05L656.7 541.05L656.7 541.07ZM510.4 761.87C540.41 761.87 554.09 779.09 554.09 800.21C554.09 821.16 539.62 837.53 507.77 837.53L485.88 837.53L485.88 895.25L466.15 895.25L466.15 761.89L510.4 761.89L510.4 761.87ZM509.61 820.35C524.33 820.35 533.75 812.7 533.75 799.36C533.75 789.63 528.36 779.09 510.42 779.09L485.93 779.09L485.93 820.35L509.61 820.35ZM644.68 761.1L706.13 895.21L684.38 895.21L667.67 855.89L609.24 855.89L593.09 895.21L571.78 895.21L630.82 761.1L644.68 761.1ZM659.59 838.7L637.45 786L616.91 838.7L659.59 838.7ZM908.3 761.89L928.04 761.89L928.04 895.25L908.3 895.25L908.3 761.89ZM1010.11 793.17C1010.11 793.17 1010.11 793.17 1010.11 793.16C1010.11 793.16 1010.11 793.15 1010.11 793.15L1010.11 793.17ZM1010.11 793.16C1010.12 818.78 1073 818.38 1072.91 860.83C1072.91 881.71 1055.66 897 1032.22 897C1016.43 897 1003.69 893.08 991.53 884.67L991.53 860.45C1002.21 872.87 1015.58 879.73 1029.89 879.73C1046.1 879.73 1053.55 870.36 1053.55 862.96C1053.55 835.38 990.68 832.24 990.68 795.68C990.68 773.95 1008.15 760.12 1034.8 760.12C1037.65 760.13 1040.49 760.35 1043.31 760.75C1046.13 761.16 1048.92 761.76 1051.65 762.55C1054.39 763.34 1057.07 764.32 1059.67 765.47C1062.27 766.63 1064.79 767.97 1067.21 769.47L1067.21 791.22C1054.9 780.46 1042.94 777.32 1033.07 777.32C1019.71 777.32 1010.11 783.75 1010.11 793.16ZM838.53 868.83C839.12 869.76 839.72 870.68 840.33 871.6C840.94 872.52 841.56 873.43 842.18 874.34C842.8 875.25 843.43 876.15 844.07 877.05C844.7 877.95 845.35 878.84 846 879.73L856.38 895.25L832.76 895.25L815.11 867.85C796.63 840.49 788.22 837.35 777.95 837.35L769.51 837.35L769.51 895.27L749.4 895.27L749.4 761.91L784.74 761.91C813.05 761.91 830.72 776.2 830.72 799.25C830.72 814.66 822.31 826.23 807.35 831.88C820.05 839.91 827.83 852.24 838.53 868.83ZM782.48 820.15C804.05 820.15 810.18 809.65 810.02 798.44C809.8 785.93 801.99 778.3 782.48 778.3L769.56 778.3L769.56 820.17L782.46 820.17L782.48 820.15ZM609.71 351.51L609.69 351.51L609.71 351.51Z" />
</svg>