<svg xmlns="http://www.w3.org/2000/svg" xmlns:xlink="http://www.w3.org/1999/xlink" width="1500" height="235" viewBox="0 0 1500 235">
  <defs>
    <style>
      .cls-1 {
        clip-path: url(#clip-Web_1920_1);
      }

      .cls-2 {
        fill: #02378e;
      }

      .cls-3 {
        fill: #ff7e64;
      }
    </style>
    <clipPath id="clip-Web_1920_1">
      <rect width="1500" height="235"/>
    </clipPath>
  </defs>
  <g id="Web_1920_1" data-name="Web 1920 – 1" class="cls-1">
    <g id="Groupe_31" data-name="Groupe 31" transform="translate(-517 -423)">
      <g id="Groupe_27" data-name="Groupe 27" transform="translate(863.2 490.164)">
        <path id="Tracé_39" data-name="Tracé 39" class="cls-2" d="M722.985,454.412a5.552,5.552,0,0,1,1.738,4.16v75.149a5.838,5.838,0,0,1-6.087,5.96A6.168,6.168,0,0,1,714.165,538a5.68,5.68,0,0,1-1.738-4.282V476.21l-24.1,36.518a7.34,7.34,0,0,1-2.174,1.864,4.482,4.482,0,0,1-2.671.621,4.232,4.232,0,0,1-2.545-.621,7.287,7.287,0,0,1-2.175-1.864l-24.221-37.635v58.629A6.054,6.054,0,0,1,652.992,538a5.394,5.394,0,0,1-4.161,1.678A5.24,5.24,0,0,1,644.795,538a6.043,6.043,0,0,1-1.554-4.282V458.572a6.044,6.044,0,0,1,6.087-5.96,6.219,6.219,0,0,1,2.919.745,6.345,6.345,0,0,1,2.3,1.986l29.436,44.591,29.811-44.591a5.948,5.948,0,0,1,4.97-2.731A6.332,6.332,0,0,1,722.985,454.412Z" transform="translate(-643.241 -447.766)"/>
        <path id="Tracé_40" data-name="Tracé 40" class="cls-2" d="M744.964,497.195a5.951,5.951,0,0,1-4.1,1.552H697.144q.868,9.07,6.894,14.532a21.1,21.1,0,0,0,14.72,5.466,23.04,23.04,0,0,0,9.686-1.738,24.308,24.308,0,0,0,6.583-4.473,7,7,0,0,1,3.6-1.117,4.709,4.709,0,0,1,3.54,1.49,4.888,4.888,0,0,1,1.428,3.478,6.137,6.137,0,0,1-2.485,4.721,29.28,29.28,0,0,1-9.562,6.085,31.394,31.394,0,0,1-12.176,2.487,35.96,35.96,0,0,1-17.7-4.225,29.425,29.425,0,0,1-11.8-11.8,34.993,34.993,0,0,1-4.161-17.141A37.788,37.788,0,0,1,690,478.19a31.075,31.075,0,0,1,11.3-12.109,29.123,29.123,0,0,1,30-.126,31.171,31.171,0,0,1,11.178,11.3,32.265,32.265,0,0,1,4.349,16.146A5.318,5.318,0,0,1,744.964,497.195ZM704.347,476.7q-5.094,3.913-6.705,12.109h36.64v-.993a15.185,15.185,0,0,0-5.9-10.806,18.686,18.686,0,0,0-11.987-4.225A19.2,19.2,0,0,0,704.347,476.7Z" transform="translate(-591.565 -436.518)"/>
        <path id="Tracé_41" data-name="Tracé 41" class="cls-2" d="M716.144,514.894a5.031,5.031,0,0,1,2.607-4.225,4.88,4.88,0,0,1,2.857-.867,5.7,5.7,0,0,1,4.1,1.864A26.244,26.244,0,0,0,733.719,518a22.944,22.944,0,0,0,10.247,2.11,17.472,17.472,0,0,0,8.321-2.172,7.066,7.066,0,0,0,3.6-6.645,7.139,7.139,0,0,0-3.662-6.459,41.723,41.723,0,0,0-10.746-4.1,79.009,79.009,0,0,1-11.551-3.914,20.678,20.678,0,0,1-7.765-5.961Q719,486.946,719,480.613a15.913,15.913,0,0,1,3.165-9.813,21.063,21.063,0,0,1,8.447-6.583,27.852,27.852,0,0,1,11.489-2.358,33.277,33.277,0,0,1,11.863,2.234,22.305,22.305,0,0,1,9.627,6.832,5.506,5.506,0,0,1,1.492,3.6,5.341,5.341,0,0,1-1.988,3.848,4.465,4.465,0,0,1-3.105,1.119,4.653,4.653,0,0,1-3.6-1.492,17.469,17.469,0,0,0-6.4-4.6,21.166,21.166,0,0,0-8.383-1.616,15.6,15.6,0,0,0-8.011,1.926q-3.3,1.925-3.294,6.521a7.219,7.219,0,0,0,3.788,6.459,47.919,47.919,0,0,0,11.24,4.1,69.742,69.742,0,0,1,10.932,3.728,19.09,19.09,0,0,1,7.328,5.9q2.979,3.913,2.981,10.245a15.937,15.937,0,0,1-3.354,10.125,21.6,21.6,0,0,1-8.756,6.581,29.027,29.027,0,0,1-11.491,2.3,37.717,37.717,0,0,1-14.47-2.735,26.969,26.969,0,0,1-11.242-8.693A6.221,6.221,0,0,1,716.144,514.894Z" transform="translate(-554.548 -436.518)"/>
        <path id="Tracé_42" data-name="Tracé 42" class="cls-2" d="M767.906,538.991a40.838,40.838,0,0,1-13.291-8.257,6.6,6.6,0,0,1-2.609-5.094,5.672,5.672,0,0,1,1.74-4.039,5.514,5.514,0,0,1,4.1-1.8,5.156,5.156,0,0,1,3.6,1.365,34.58,34.58,0,0,0,10.247,6.772,31.273,31.273,0,0,0,11.985,2.172,23.313,23.313,0,0,0,13.231-3.6q5.4-3.6,5.4-9.068a11.646,11.646,0,0,0-5.4-10q-5.283-3.544-16.086-5.9-12.8-2.61-19.688-8.572t-6.894-16.52a21.938,21.938,0,0,1,3.85-12.856,24.681,24.681,0,0,1,10.682-8.507,38.113,38.113,0,0,1,15.4-2.981,42.211,42.211,0,0,1,14.532,2.485,30.686,30.686,0,0,1,11.054,6.583q2.856,2.487,2.857,5.342a5.575,5.575,0,0,1-1.676,3.974,5.415,5.415,0,0,1-4.039,1.738,4.127,4.127,0,0,1-2.857-.993,25.774,25.774,0,0,0-8.942-5.466,30,30,0,0,0-10.93-2.237q-8.322,0-13.229,3.416a11,11,0,0,0,0,18.322q4.9,3.228,14.594,5.466a77.27,77.27,0,0,1,15.836,4.967,22.272,22.272,0,0,1,9.5,7.951q3.355,5.094,3.354,13.288a21.294,21.294,0,0,1-4.037,12.794,26.54,26.54,0,0,1-10.992,8.693,37.065,37.065,0,0,1-15.279,3.108A46.456,46.456,0,0,1,767.906,538.991Z" transform="translate(-510.918 -448.381)"/>
        <path id="Tracé_43" data-name="Tracé 43" class="cls-2" d="M844.789,513.278a31.577,31.577,0,0,1-11.863,12.049,33.789,33.789,0,0,1-33.165,0A31.539,31.539,0,0,1,787.9,513.278a34.731,34.731,0,0,1-4.347-17.389,35.429,35.429,0,0,1,4.347-17.513A31.3,31.3,0,0,1,799.762,466.2a33.8,33.8,0,0,1,33.165,0,31.339,31.339,0,0,1,11.863,12.171,35.453,35.453,0,0,1,4.347,17.513A34.754,34.754,0,0,1,844.789,513.278ZM834.542,483.9a20.751,20.751,0,0,0-7.576-8.2,20.762,20.762,0,0,0-21.239,0,20.723,20.723,0,0,0-7.579,8.2,25.236,25.236,0,0,0-2.8,11.985,24.6,24.6,0,0,0,2.8,11.8,20.816,20.816,0,0,0,7.579,8.135,20.775,20.775,0,0,0,21.239,0,20.845,20.845,0,0,0,7.576-8.135,24.6,24.6,0,0,0,2.793-11.8A25.238,25.238,0,0,0,834.542,483.9Z" transform="translate(-472.537 -436.518)"/>
        <path id="Tracé_44" data-name="Tracé 44" class="cls-2" d="M828.693,540.6a5.752,5.752,0,0,1-4.223,1.738,5.545,5.545,0,0,1-4.161-1.738,5.867,5.867,0,0,1-1.678-4.223V456.389a5.937,5.937,0,0,1,5.963-5.963,5.556,5.556,0,0,1,4.16,1.738,5.871,5.871,0,0,1,1.678,4.225v79.992A5.754,5.754,0,0,1,828.693,540.6Z" transform="translate(-429.862 -450.426)"/>
        <path id="Tracé_45" data-name="Tracé 45" class="cls-2" d="M883.688,464.27a5.86,5.86,0,0,1,1.676,4.223v33.038q0,12.921-7.142,20.06t-20.184,7.142q-12.921,0-20-7.142t-7.08-20.06V468.493a5.863,5.863,0,0,1,1.678-4.223,5.539,5.539,0,0,1,4.161-1.74,5.686,5.686,0,0,1,4.285,1.74,5.862,5.862,0,0,1,1.678,4.223v33.038q0,16.275,15.277,16.272,7.574,0,11.553-4.1t3.974-12.174V468.493a5.861,5.861,0,0,1,1.676-4.223,5.535,5.535,0,0,1,4.161-1.74A5.691,5.691,0,0,1,883.688,464.27Z" transform="translate(-414.863 -435.7)"/>
        <path id="Tracé_46" data-name="Tracé 46" class="cls-2" d="M883.727,482.673v37.013q0,6.214,5.588,6.211a8.972,8.972,0,0,0,2.361-.435,8.976,8.976,0,0,1,2.361-.434,3.411,3.411,0,0,1,2.733,1.365,5.322,5.322,0,0,1,1.117,3.48q0,2.607-2.981,4.469a12.383,12.383,0,0,1-6.707,1.864,30.379,30.379,0,0,1-7.514-.871,11.109,11.109,0,0,1-6.087-4.409q-2.673-3.538-2.669-10.744V482.673h-7.2a5.313,5.313,0,0,1-5.466-5.466,5.1,5.1,0,0,1,1.552-3.852,5.425,5.425,0,0,1,3.914-1.49h7.2V461.432a5.872,5.872,0,0,1,1.674-4.223,5.7,5.7,0,0,1,4.287-1.74,5.546,5.546,0,0,1,4.16,1.74,5.857,5.857,0,0,1,1.678,4.223v10.434h10.309a5.309,5.309,0,0,1,5.464,5.464,5.105,5.105,0,0,1-1.552,3.852,5.433,5.433,0,0,1-3.912,1.492Z" transform="translate(-380.436 -444.291)"/>
        <path id="Tracé_47" data-name="Tracé 47" class="cls-2" d="M883.394,464.338a5.131,5.131,0,0,1-1.554-4.163v-1.986q0-2.982,1.678-4.223a8.678,8.678,0,0,1,5.154-1.244q3.478,0,5.029,1.306a5.138,5.138,0,0,1,1.554,4.16v1.986q0,2.982-1.616,4.225t-5.091,1.241Q884.943,465.641,883.394,464.338Zm9.438,73.471a5.693,5.693,0,0,1-4.285,1.738,5.541,5.541,0,0,1-4.161-1.738,5.858,5.858,0,0,1-1.678-4.223V479.8a5.854,5.854,0,0,1,1.678-4.223,5.537,5.537,0,0,1,4.161-1.742,5.688,5.688,0,0,1,4.285,1.742,5.854,5.854,0,0,1,1.678,4.223v53.783A5.858,5.858,0,0,1,892.832,537.809Z" transform="translate(-352.963 -447.631)"/>
        <path id="Tracé_48" data-name="Tracé 48" class="cls-2" d="M953.553,513.278a31.571,31.571,0,0,1-11.861,12.049,33.789,33.789,0,0,1-33.165,0,31.561,31.561,0,0,1-11.863-12.049,34.732,34.732,0,0,1-4.347-17.389,35.431,35.431,0,0,1,4.347-17.513A31.324,31.324,0,0,1,908.528,466.2a33.8,33.8,0,0,1,33.165,0,31.334,31.334,0,0,1,11.861,12.171,35.452,35.452,0,0,1,4.347,17.513A34.753,34.753,0,0,1,953.553,513.278ZM943.306,483.9a20.734,20.734,0,0,0-7.576-8.2,20.766,20.766,0,0,0-21.242,0,20.735,20.735,0,0,0-7.576,8.2,25.236,25.236,0,0,0-2.793,11.985,24.6,24.6,0,0,0,2.793,11.8,20.828,20.828,0,0,0,7.576,8.135,20.779,20.779,0,0,0,21.242,0,20.827,20.827,0,0,0,7.576-8.135,24.577,24.577,0,0,0,2.8-11.8A25.209,25.209,0,0,0,943.306,483.9Z" transform="translate(-340.216 -436.518)"/>
        <path id="Tracé_49" data-name="Tracé 49" class="cls-2" d="M982.471,488.685v33.787a5.866,5.866,0,0,1-1.678,4.223,5.693,5.693,0,0,1-4.285,1.738,5.545,5.545,0,0,1-4.161-1.738,5.857,5.857,0,0,1-1.678-4.223V488.809q0-7.325-3.354-11.675t-10.93-4.349a18.73,18.73,0,0,0-9.006,2.174,16.579,16.579,0,0,0-6.333,5.839,14.774,14.774,0,0,0-2.3,8.011v33.663a5.863,5.863,0,0,1-1.673,4.223,5.7,5.7,0,0,1-4.287,1.738,5.591,5.591,0,0,1-4.223-1.678,5.907,5.907,0,0,1-1.616-4.282V469.31a5.854,5.854,0,0,1,1.678-4.223,5.535,5.535,0,0,1,4.16-1.74,5.7,5.7,0,0,1,4.287,1.74,5.859,5.859,0,0,1,1.673,4.223v4.347a26.733,26.733,0,0,1,9.006-8.383,23.864,23.864,0,0,1,12.36-3.416Q982.473,461.858,982.471,488.685Z" transform="translate(-298.085 -436.518)"/>
        <path id="Tracé_50" data-name="Tracé 50" class="cls-2" d="M956.646,514.894a5.034,5.034,0,0,1,2.609-4.225,4.875,4.875,0,0,1,2.857-.867,5.7,5.7,0,0,1,4.1,1.864A26.247,26.247,0,0,0,974.223,518a22.932,22.932,0,0,0,10.247,2.11,17.473,17.473,0,0,0,8.321-2.172,7.066,7.066,0,0,0,3.6-6.645,7.14,7.14,0,0,0-3.664-6.459,41.7,41.7,0,0,0-10.744-4.1,78.923,78.923,0,0,1-11.551-3.914,20.681,20.681,0,0,1-7.765-5.961q-3.165-3.913-3.165-10.247a15.914,15.914,0,0,1,3.165-9.813,21.064,21.064,0,0,1,8.447-6.583,27.852,27.852,0,0,1,11.489-2.358,33.288,33.288,0,0,1,11.863,2.234,22.318,22.318,0,0,1,9.626,6.832,5.5,5.5,0,0,1,1.49,3.6,5.333,5.333,0,0,1-1.988,3.848,4.46,4.46,0,0,1-3.1,1.119,4.652,4.652,0,0,1-3.6-1.492,17.486,17.486,0,0,0-6.4-4.6,21.177,21.177,0,0,0-8.385-1.616,15.607,15.607,0,0,0-8.011,1.926q-3.3,1.925-3.292,6.521A7.216,7.216,0,0,0,974.6,486.7a47.922,47.922,0,0,0,11.24,4.1,69.7,69.7,0,0,1,10.93,3.728,19.08,19.08,0,0,1,7.33,5.9q2.979,3.913,2.979,10.245a15.936,15.936,0,0,1-3.351,10.125,21.6,21.6,0,0,1-8.758,6.581,29.026,29.026,0,0,1-11.489,2.3,37.707,37.707,0,0,1-14.47-2.735,26.954,26.954,0,0,1-11.243-8.693A6.207,6.207,0,0,1,956.646,514.894Z" transform="translate(-261.955 -436.518)"/>
        <path id="Tracé_51" data-name="Tracé 51" class="cls-2" d="M997.495,455.651a3,3,0,0,1,2.857-2.979h44.957a3.043,3.043,0,0,1,0,6.085h-41.729v34.4H1040.1a3.043,3.043,0,1,1,0,6.085h-36.516v37.383a3.043,3.043,0,0,1-6.085,0Z" transform="translate(-212.258 -447.693)"/>
        <path id="Tracé_52" data-name="Tracé 52" class="cls-2" d="M1082.917,467.419v54.894a2.98,2.98,0,1,1-5.96,0v-9.066a28.417,28.417,0,0,1-22.853,12.047c-16.019,0-28.813-13.787-28.813-30.429s12.794-30.427,28.813-30.427a28.294,28.294,0,0,1,22.853,11.923v-8.942a2.98,2.98,0,1,1,5.96,0Zm-5.96,27.446c0-13.661-10.31-24.589-22.853-24.589-12.417,0-22.853,10.928-22.853,24.589s10.436,24.469,22.853,24.469C1066.647,519.334,1076.957,508.528,1076.957,494.865Z" transform="translate(-178.443 -433.379)"/>
        <path id="Tracé_53" data-name="Tracé 53" class="cls-2" d="M1148.888,489.208a19.117,19.117,0,0,0-18.879-18.879,18.927,18.927,0,0,0-18.755,18.879V522.74a.425.425,0,0,1-.124.248v.248a3.152,3.152,0,0,1-1.491,1.616,3.3,3.3,0,0,1-1.487.372h-.623a.432.432,0,0,1-.248-.124c-.248,0-.5-.248-.745-.375-.124,0-.248-.122-.372-.246l-.372-.372c-.124-.126-.124-.248-.249-.248,0-.124,0-.124-.126-.25a.392.392,0,0,0-.122-.248.458.458,0,0,0-.124-.372V489.208a18.755,18.755,0,1,0-37.509,0v33.16a2.659,2.659,0,0,1-1.365,2.358,1.4,1.4,0,0,1-.745.375c-.124.124-.248.124-.5.124h-.747a3.238,3.238,0,0,1-2.483-2.237V467.35a2.886,2.886,0,0,1,2.857-2.855,2.839,2.839,0,0,1,2.979,2.855v5.836a24.3,24.3,0,0,1,18.754-8.691,24.683,24.683,0,0,1,21.736,12.916,25.176,25.176,0,0,1,21.858-12.916,24.7,24.7,0,0,1,24.713,24.713v33.16a2.918,2.918,0,0,1-5.834,0Z" transform="translate(-133.995 -433.31)"/>
        <path id="Tracé_54" data-name="Tracé 54" class="cls-2" d="M1114.05,458.454a3.044,3.044,0,0,1,6.087,0v2.857a3.049,3.049,0,1,1-6.087,0Zm0,19.872a2.941,2.941,0,0,1,2.981-2.981,2.973,2.973,0,0,1,3.105,2.981V533.22a3.044,3.044,0,0,1-6.087,0Z" transform="translate(-70.458 -444.286)"/>
        <path id="Tracé_55" data-name="Tracé 55" class="cls-2" d="M1127.835,455.651a3.043,3.043,0,0,1,6.085,0v80.977a3.043,3.043,0,0,1-6.085,0Z" transform="translate(-53.688 -447.693)"/>
        <path id="Tracé_56" data-name="Tracé 56" class="cls-2" d="M1141.618,467.3a2.89,2.89,0,0,1,2.857-2.857,2.951,2.951,0,0,1,3.105,2.857v33.036a18.633,18.633,0,0,0,18.63,18.752,18.842,18.842,0,0,0,18.877-18.752V467.3a2.173,2.173,0,0,1,.5-1.492c0-.124.126-.246.126-.372.122,0,.122-.124.246-.124a2.219,2.219,0,0,1,1.119-.743h.246c.126,0,.25-.126.374-.126h.745a7.732,7.732,0,0,1,1.49.621,3.025,3.025,0,0,1,.747.993,2.422,2.422,0,0,1,.372,1.243v53.154a28.653,28.653,0,0,1-28.94,28.567,30.457,30.457,0,0,1-12.544-2.857,3.074,3.074,0,0,1-1.239-3.974,3.2,3.2,0,0,1,3.848-1.492,22.494,22.494,0,0,0,9.935,2.363,22.848,22.848,0,0,0,22.977-22.607v-3.974a25.165,25.165,0,0,1-18.877,8.7,24.862,24.862,0,0,1-24.593-24.839Z" transform="translate(-36.919 -433.379)"/>
      </g>
      <path id="Tracé_57" data-name="Tracé 57" class="cls-3" d="M623.854,557.972c-5.417,0-10.817-.248-16.052-.738-5.26-.492-10.507-1.246-15.6-2.234a153.05,153.05,0,0,1-15.1-3.742,149.752,149.752,0,0,1-14.563-5.244,151.78,151.78,0,0,1-13.976-6.739,156.458,156.458,0,0,1-13.353-8.2c-4.313-2.953-8.589-6.193-12.706-9.633a14.408,14.408,0,1,1,18.473-22.115c3.416,2.853,6.951,5.535,10.511,7.973s7.213,4.679,10.9,6.694a121.238,121.238,0,0,0,23.068,9.689,124.741,124.741,0,0,0,12.253,3.032c4.161.809,8.463,1.425,12.785,1.829a146.272,146.272,0,0,0,26.728,0c4.322-.4,8.627-1.02,12.79-1.829a124.756,124.756,0,0,0,12.247-3.032,121,121,0,0,0,11.759-4.236,122.22,122.22,0,0,0,11.307-5.451c3.693-2.019,7.359-4.271,10.9-6.7,3.567-2.44,7.1-5.125,10.516-7.973a14.408,14.408,0,1,1,18.473,22.115c-4.114,3.436-8.388,6.676-12.706,9.633s-8.826,5.725-13.357,8.2a151.5,151.5,0,0,1-13.976,6.736,149.755,149.755,0,0,1-14.563,5.247,153.61,153.61,0,0,1-15.1,3.739c-5.092.989-10.34,1.742-15.6,2.234C634.673,557.724,629.271,557.972,623.854,557.972Z" transform="translate(0 99.697)"/>
      <g id="Groupe_29" data-name="Groupe 29" transform="translate(605.257 422.627)">
        <g id="Groupe_28" data-name="Groupe 28">
          <path id="Tracé_58" data-name="Tracé 58" class="cls-2" d="M613,451.143c-13.781,0-26.429,11.2-27.49,24.937l0,.051c0,.137.038.261.038.4v90.865a14.185,14.185,0,0,1-4.059,10.219,13.425,13.425,0,0,1-10.065,4.207A14.361,14.361,0,0,1,557,567.395V476.53c0-.259.053-.5.064-.751,0-.053-.015-.1-.015-.155a53.056,53.056,0,0,1,52.994-53h16.243c7.244,0,13.71,5.193,14.634,12.38a14.277,14.277,0,0,1-14.14,16.137Z" transform="translate(-556.998 -422.627)"/>
        </g>
      </g>
      <g id="Groupe_30" data-name="Groupe 30" transform="translate(657.449 494.216)">
        <circle id="Ellipse_8" data-name="Ellipse 8" class="cls-2" cx="14.26" cy="14.26" r="14.26" transform="translate(1.112 1.106)"/>
        <path id="Tracé_59" data-name="Tracé 59" class="cls-2" d="M595.916,484a15.365,15.365,0,1,1,15.37-15.365A15.387,15.387,0,0,1,595.916,484Zm0-28.514a13.149,13.149,0,1,0,13.153,13.149A13.168,13.168,0,0,0,595.916,455.487Z" transform="translate(-580.544 -453.27)"/>
      </g>
    </g>
  </g>
</svg>
